<svg xmlns="http://www.w3.org/2000/svg" viewBox="0 0 64 64" role="img" aria-labelledby="title desc">
  <title id="title">My Fit Log</title>
  <desc id="desc">Icona arancione di My Fit Log con cuore e battito.</desc>
  <defs>
    <linearGradient id="bg" x1="10" x2="54" y1="6" y2="58" gradientUnits="userSpaceOnUse">
      <stop stop-color="#FFB86B"/>
      <stop offset="0.52" stop-color="#F97316"/>
      <stop offset="1" stop-color="#C2410C"/>
    </linearGradient>
    <linearGradient id="shine" x1="16" x2="48" y1="10" y2="42" gradientUnits="userSpaceOnUse">
      <stop stop-color="#FFF7ED" stop-opacity="0.88"/>
      <stop offset="1" stop-color="#FFF7ED" stop-opacity="0.18"/>
    </linearGradient>
  </defs>
  <rect width="60" height="60" x="2" y="2" fill="url(#bg)" rx="18"/>
  <path fill="url(#shine)" d="M13 16c0-4.4 3.6-8 8-8h22c4.4 0 8 3.6 8 8v4c-9.8 5.2-25.4 7.9-38 4.8z" opacity="0.95"/>
  <path fill="#FFF7ED" d="M32 47.3s-15.2-8.7-15.2-20.1c0-5.2 3.3-8.7 8-8.7 3 0 5.3 1.6 7.2 4.1 1.9-2.5 4.2-4.1 7.2-4.1 4.7 0 8 3.5 8 8.7 0 11.4-15.2 20.1-15.2 20.1z" opacity="0.96"/>
  <path fill="none" stroke="#8A3D12" stroke-linecap="round" stroke-linejoin="round" stroke-width="3.2" d="M15 34h8l3.2-8.8 5 17.4 4.2-11.6H49"/>
  <path fill="#8A3D12" d="M22.2 51.7h19.6c1.1 0 2 .9 2 2s-.9 2-2 2H22.2c-1.1 0-2-.9-2-2s.9-2 2-2z" opacity="0.32"/>
</svg>
